<?xml version="1.0" encoding="UTF-8"?><svg id="_Ñëîé_1" xmlns="http://www.w3.org/2000/svg" xmlns:xlink="http://www.w3.org/1999/xlink" viewBox="0 0 1671.69 943.78"><defs><linearGradient id="linear-gradient" x1="10.36" y1="785.41" x2="1671.69" y2="785.41" gradientUnits="userSpaceOnUse"><stop offset="0" stop-color="#e3cb9d"/><stop offset="1" stop-color="#b47f33"/></linearGradient></defs><path d="m1671.69,116.34v510.69H10.36V116.34C10.36,52.16,62.51,0,126.7,0h1428.65c64.31,0,116.34,52.16,116.34,116.34Z"/><path d="m1671.69,627.03v200.4c0,64.31-52.03,116.34-116.34,116.34H126.7c-64.18,0-116.34-52.03-116.34-116.34v-200.4h1661.33Z" style="fill:url(#linear-gradient);"/><g><path d="m219.86,200.51h-1.75l-77.6,51.3v-77.82l79.36-53.05h92.95v316.34h-92.95v-236.76Z" style="fill:#fff;"/><path d="m409.7,401.31c-25.14-29.96-37.71-70.95-37.71-122.98s12.64-93.1,37.93-122.76c24.85-29.08,58.68-43.62,101.5-43.62s76.65,14.54,101.5,43.62c25.14,29.52,37.71,70.37,37.71,122.54s-12.5,93.02-37.49,122.98c-24.99,29.96-58.9,44.94-101.72,44.94s-76.87-14.91-101.72-44.72Zm133.72-50.42c8.33-16.95,12.5-41.14,12.5-72.56s-4.17-55.39-12.5-71.9c-7.75-15.35-18.41-23.02-32.01-23.02s-24.26,7.67-32.01,23.02c-8.48,16.51-12.71,40.48-12.71,71.9s4.24,55.61,12.71,72.56c7.89,15.78,18.56,23.68,32.01,23.68s24.11-7.89,32.01-23.68Z" style="fill:#fff;"/><path d="m722.31,420.17c-25.58-17.25-38.36-40.12-38.36-68.62,0-21.78,7.53-40.12,22.58-55.02,14.91-14.76,34.27-23.38,58.09-25.87v-1.75c-19.88-3.36-36.1-11.76-48.67-25.21-12.86-13.45-19.29-29.3-19.29-47.57,0-24.55,11.91-44.65,35.73-60.29,23.97-15.78,55.02-23.68,93.17-23.68s69.2,7.89,93.17,23.68c23.82,15.78,35.73,35.95,35.73,60.5,0,17.98-6.36,33.76-19.07,47.35-12.71,13.45-28.86,21.85-48.45,25.21v1.75c23.82,2.48,43.19,11.11,58.09,25.87,14.91,14.91,22.36,33.32,22.36,55.24,0,28.21-13.01,51.01-39.02,68.4-26.01,17.25-60.29,25.87-102.81,25.87s-77.53-8.62-103.25-25.87Zm134.82-47.35c8.04-7.31,12.06-16.66,12.06-28.06s-4.02-20.75-12.06-28.06c-8.18-7.6-18.71-11.4-31.57-11.4s-23.38,3.8-31.57,11.4c-8.04,7.31-12.06,16.66-12.06,28.06s4.02,20.75,12.06,28.06c8.18,7.6,18.71,11.4,31.57,11.4s23.38-3.8,31.57-11.4Zm-4.82-139.21c7.02-6.72,10.52-14.98,10.52-24.77s-3.51-18.27-10.52-24.99c-7.16-6.72-16.08-10.08-26.74-10.08s-19.51,3.36-26.53,10.08c-7.02,6.72-10.52,15.05-10.52,24.99s3.51,18.05,10.52,24.77,15.86,10.08,26.53,10.08,19.58-3.36,26.74-10.08Z" style="fill:#fff;"/><path d="m1036.24,401.31c-25.14-29.96-37.71-70.95-37.71-122.98s12.64-93.1,37.93-122.76c24.85-29.08,58.68-43.62,101.5-43.62s76.65,14.54,101.5,43.62c25.14,29.52,37.71,70.37,37.71,122.54s-12.5,93.02-37.49,122.98c-24.99,29.96-58.9,44.94-101.72,44.94s-76.87-14.91-101.72-44.72Zm133.72-50.42c8.33-16.95,12.5-41.14,12.5-72.56s-4.17-55.39-12.5-71.9c-7.75-15.35-18.41-23.02-32.01-23.02s-24.26,7.67-32.01,23.02c-8.48,16.51-12.71,40.48-12.71,71.9s4.24,55.61,12.71,72.56c7.89,15.78,18.56,23.68,32.01,23.68s24.11-7.89,32.01-23.68Z" style="fill:#fff;"/><path d="m1513.92,229.88c18.41,22.07,27.62,51.52,27.62,88.35s-9.13,66.13-27.4,88.35c-18.12,22.07-42.16,33.1-72.12,33.1-35.37,0-60.5-13.81-75.41-41.43h-.88v116.84h-47.57V199.19h45.82v39.46h1.1c6.72-12.86,16.88-23.02,30.47-30.47,13.74-7.6,28.86-11.4,45.38-11.4,30.4,0,54.73,11.03,73,33.1Zm-38.58,147.32c11.69-14.76,17.54-34.42,17.54-58.97s-5.85-44.21-17.54-58.97c-11.69-14.76-27.18-22.14-46.47-22.14s-34.13,7.45-45.82,22.36c-11.69,14.91-17.61,34.49-17.76,58.75.15,24.26,6.07,43.84,17.76,58.75,11.55,14.91,26.82,22.36,45.82,22.36s34.78-7.38,46.47-22.14Z" style="fill:#fff;"/></g><g><path d="m375.44,868.25v-168.48h105.2v22.53h-79.05v53.36h72.39v22.07h-72.39v70.52h-26.15Z"/><path d="m529.56,806.83c0,12.3,3.66,22.15,10.98,29.54,7.55,7.63,17.9,11.44,31.06,11.44s23.55-3.81,31.17-11.44c7.32-7.39,10.98-17.24,10.98-29.54v-107.07h26.04v109.29c0,18.45-6.07,33.32-18.21,44.6-12.45,11.6-29.11,17.4-49.97,17.4s-37.52-5.8-49.97-17.4c-12.14-11.29-18.21-26.15-18.21-44.6v-109.29h26.15v107.07Z"/><path d="m775.45,868.25h-104.62v-168.48h26.15v145.83h78.46v22.65Z"/><path d="m902.49,868.25h-104.62v-168.48h26.15v145.83h78.46v22.65Z"/><path d="m1080.56,868.25v-65.15h-59.31v65.15h-49.51v-168.48h49.51v63.98h59.31v-63.98h49.51v168.48h-49.51Z"/><path d="m1225.46,699.76c25.76,0,45.69,7.08,59.78,21.25,14.24,14.4,21.37,34.99,21.37,61.77s-7.16,47.91-21.48,62.93c-14.24,15.02-34.13,22.53-59.66,22.53h-72.04v-168.48h72.04Zm-22.53,129.14h15.53c25.14,0,37.71-15.37,37.71-46.12,0-14.09-3.31-24.91-9.92-32.46-6.54-7.47-15.8-11.21-27.79-11.21h-15.53v89.79Z"/></g></svg>