<?xml version="1.0" encoding="UTF-8"?><svg id="_Ñëîé_1" xmlns="http://www.w3.org/2000/svg" xmlns:xlink="http://www.w3.org/1999/xlink" viewBox="0 0 1661.33 948.01"><defs><linearGradient id="linear-gradient" x1="0" y1="789.64" x2="1661.33" y2="789.64" gradientUnits="userSpaceOnUse"><stop offset="0" stop-color="#e3cb9d"/><stop offset="1" stop-color="#b47f33"/></linearGradient></defs><path d="m1661.33,631.26v200.4c0,64.31-52.03,116.34-116.34,116.34H116.34c-64.18,0-116.34-52.03-116.34-116.34v-200.4h1661.33Z" style="fill:url(#linear-gradient);"/><g><path d="m1661.33,120.57v510.69H0V120.57C0,56.39,52.16,4.23,116.34,4.23h1428.65c64.31,0,116.34,52.16,116.34,116.34Z"/><g><path d="m497.88,256.35c0-36.56,13.26-65.96,39.78-88.2,26.52-22.4,61.76-33.6,105.74-33.6s76.92,9.96,102.28,29.89c24.87,19.76,37.31,45.95,37.31,78.56s-20.01,67.36-60.03,102.78l-83.75,74.12v1.98h147.99v79.06h-283.13v-69.67l143.29-126.74c23.22-20.75,34.84-40.19,34.84-58.31,0-9.88-3.71-18.04-11.12-24.46-7.74-6.59-18.2-9.88-31.38-9.88s-24.79,4.12-33.35,12.35c-8.73,8.24-13.09,18.86-13.09,31.87v2.22h-95.36v-1.98Z" style="fill:#fff;"/><path d="m831.16,500.94V144.44h104.75v151.2h1.98l110.19-151.2h109.94l-117.35,158.36,122.79,198.14h-121.8l-77.82-130.94-27.92,37.55v93.39h-104.75Z" style="fill:#fff;"/></g></g><g><path d="m428.07,884.21l-14.36-20.08c-8.87,3.35-18.84,5.02-29.89,5.02-24.29,0-43.51-7.78-57.68-23.35-14.17-15.57-21.25-36.78-21.25-63.63s7.08-47.99,21.25-63.63c14.17-15.65,33.39-23.47,57.68-23.47s43.43,7.82,57.68,23.47c14.17,15.72,21.25,36.93,21.25,63.63,0,32.07-9.77,55.69-29.31,70.87l21.95,31.17h-27.32Zm-28.49-40.28l-20.08-28.37h26.5l11.91,16.11c11.99-11.13,17.98-27.63,17.98-49.51,0-19.69-4.67-35.3-14.01-46.82-9.42-11.6-22.11-17.4-38.06-17.4s-28.64,5.8-38.06,17.4c-9.42,11.52-14.13,27.13-14.13,46.82s4.71,35.18,14.13,46.7c9.42,11.6,22.11,17.4,38.06,17.4,5.45,0,10.7-.78,15.76-2.34Z"/><path d="m513.77,804.93c0,12.3,3.66,22.15,10.98,29.54,7.55,7.63,17.9,11.44,31.06,11.44s23.55-3.81,31.17-11.44c7.32-7.39,10.98-17.24,10.98-29.54v-107.07h26.04v109.29c0,18.45-6.07,33.32-18.21,44.6-12.45,11.6-29.11,17.4-49.97,17.4s-37.52-5.8-49.97-17.4c-12.14-11.29-18.21-26.15-18.21-44.6v-109.29h26.15v107.07Z"/><path d="m748.11,820.81h-64.22l-15.41,45.54h-27.2l60.83-168.48h28.26l60.83,168.48h-27.67l-15.41-45.54Zm-57.56-21.02h50.91l-25.1-73.91h-.7l-25.1,73.91Z"/><path d="m870.12,697.86c25.14,0,44.72,7.36,58.73,22.07,14.01,14.71,21.02,35.34,21.02,61.88s-7.01,47.37-21.02,62.23c-14.01,14.87-33.59,22.3-58.73,22.3h-60.36v-168.48h60.36Zm-34.21,145.83h31.76c17.9,0,31.64-5.29,41.22-15.88,9.57-10.66,14.36-25.92,14.36-45.77s-4.79-35.11-14.36-45.77c-9.57-10.59-23.31-15.88-41.22-15.88h-31.76v123.3Z"/><path d="m1130.39,866.35v-65.15h-59.31v65.15h-49.51v-168.48h49.51v63.98h59.31v-63.98h49.51v168.48h-49.51Z"/><path d="m1275.29,697.86c25.76,0,45.69,7.08,59.78,21.25,14.24,14.4,21.37,34.99,21.37,61.77s-7.16,47.91-21.48,62.93c-14.24,15.02-34.13,22.53-59.66,22.53h-72.04v-168.48h72.04Zm-22.53,129.14h15.53c25.14,0,37.71-15.37,37.71-46.12,0-14.09-3.31-24.91-9.92-32.46-6.54-7.47-15.8-11.21-27.79-11.21h-15.53v89.79Z"/></g></svg>