<?xml version="1.0" encoding="UTF-8"?><svg id="_Ñëîé_1" xmlns="http://www.w3.org/2000/svg" xmlns:xlink="http://www.w3.org/1999/xlink" viewBox="0 0 1662.39 964.12"><defs><linearGradient id="linear-gradient" x1="1.06" y1="800.52" x2="1662.39" y2="800.52" gradientUnits="userSpaceOnUse"><stop offset="0" stop-color="#e3cb9d"/><stop offset="1" stop-color="#b47f33"/></linearGradient></defs><g><path d="m1662.39,131.45v510.69H1.06V131.45C1.06,67.27,53.22,15.11,117.41,15.11h1428.65c64.31,0,116.34,52.16,116.34,116.34Z"/><path d="m1662.39,642.14v200.4c0,64.31-52.03,116.34-116.34,116.34H117.41c-64.18,0-116.34-52.03-116.34-116.34v-200.4h1661.33Z" style="fill:url(#linear-gradient);"/><g><path d="m881.25,423.98c-27.3-32.54-40.95-77.06-40.95-133.56s13.73-101.1,41.19-133.32c26.98-31.58,63.72-47.38,110.23-47.38s83.25,15.79,110.23,47.38c27.3,32.06,40.95,76.42,40.95,133.08s-13.57,101.02-40.71,133.56c-27.14,32.54-63.96,48.81-110.47,48.81s-83.48-16.19-110.47-48.57Zm145.23-54.76c9.05-18.41,13.57-44.68,13.57-78.8s-4.52-60.15-13.57-78.09c-8.41-16.67-20-25-34.76-25s-26.35,8.33-34.76,25c-9.21,17.94-13.81,43.96-13.81,78.09s4.6,60.39,13.81,78.8c8.57,17.14,20.16,25.71,34.76,25.71s26.19-8.57,34.76-25.71Z" style="fill:#fff;"/><path d="m1400.01,237.8c20,23.97,30,55.95,30,95.94s-9.92,71.82-29.76,95.94c-19.68,23.97-45.79,35.95-78.33,35.95-38.41,0-65.71-15-81.9-45h-.95v126.89h-51.66V204.47h49.76v42.85h1.19c7.3-13.97,18.33-25,33.09-33.09,14.92-8.25,31.35-12.38,49.28-12.38,33.01,0,59.44,11.98,79.28,35.95Zm-41.9,159.99c12.7-16.03,19.05-37.38,19.05-64.04s-6.35-48.01-19.05-64.04c-12.7-16.03-29.52-24.05-50.47-24.05s-37.06,8.09-49.76,24.28c-12.7,16.19-19.13,37.46-19.28,63.8.16,26.35,6.59,47.61,19.28,63.8,12.54,16.19,29.12,24.28,49.76,24.28s37.77-8.02,50.47-24.05Z" style="fill:#fff;"/></g><path d="m918.01,716.28c25.76,0,45.69,7.08,59.78,21.25,14.24,14.4,21.37,34.99,21.37,61.77s-7.16,47.91-21.48,62.93c-14.24,15.02-34.13,22.53-59.66,22.53h-72.04v-168.48h72.04Zm-22.53,129.14h15.53c25.14,0,37.71-15.37,37.71-46.12,0-14.09-3.31-24.91-9.92-32.46-6.54-7.47-15.8-11.21-27.79-11.21h-15.53v89.79Z"/><path d="m532.2,444.06c-28.4-19.15-42.6-44.55-42.6-76.19,0-24.18,8.36-44.55,25.07-61.1,16.55-16.39,38.06-25.97,64.51-28.72v-1.95c-22.07-3.73-40.08-13.06-54.04-27.99-14.28-14.93-21.42-32.54-21.42-52.82,0-27.26,13.23-49.58,39.68-66.94,26.61-17.53,61.1-26.29,103.46-26.29s76.84,8.76,103.46,26.29c26.45,17.53,39.68,39.92,39.68,67.19,0,19.96-7.06,37.49-21.18,52.58-14.12,14.93-32.05,24.26-53.8,27.99v1.95c26.45,2.76,47.96,12.33,64.51,28.72,16.55,16.55,24.83,37,24.83,61.34,0,31.32-14.44,56.64-43.33,75.95-28.89,19.15-66.94,28.72-114.17,28.72s-86.09-9.57-114.65-28.72Zm149.71-52.58c8.93-8.11,13.39-18.5,13.39-31.16s-4.46-23.04-13.39-31.16c-9.09-8.44-20.77-12.66-35.05-12.66s-25.97,4.22-35.05,12.66c-8.93,8.11-13.39,18.5-13.39,31.16s4.46,23.04,13.39,31.16c9.09,8.44,20.77,12.66,35.05,12.66s25.97-4.22,35.05-12.66Zm-5.36-154.58c7.79-7.47,11.68-16.63,11.68-27.51s-3.89-20.29-11.68-27.75c-7.95-7.47-17.85-11.2-29.7-11.2s-21.66,3.73-29.45,11.2c-7.79,7.47-11.68,16.72-11.68,27.75s3.89,20.04,11.68,27.51,17.61,11.2,29.45,11.2,21.75-3.73,29.7-11.2Z" style="fill:#fff;"/></g><path d="m315.62,402.08h-162.36v-80.26c27.9-54.58,67.84-121.5,119.83-200.78h134v206.72h39.33v74.32h-39.33v48.94h-91.47v-48.94Zm-81.87-70.43h84.61v-147.04h-1.83c-35.67,54.73-63.27,102.83-82.78,144.29v2.74Z" style="fill:#fff;"/><path d="m701.96,880.27c-12.66-2.99-23.06-7.02-31.19-12.08l17.49-39.59c7.67,4.45,16.26,8.02,25.78,10.7,9.51,2.69,18.64,4.03,27.39,4.03,7.52,0,12.89-.73,16.11-2.19,3.22-1.46,4.83-3.64,4.83-6.56,0-3.37-2.11-5.91-6.33-7.6-4.22-1.69-11.16-3.53-20.83-5.52-12.43-2.61-22.79-5.41-31.07-8.4-8.29-2.99-15.5-7.9-21.64-14.73-6.14-6.83-9.21-16.07-9.21-27.74,0-10.13,2.84-19.33,8.52-27.62,5.68-8.29,14.16-14.81,25.43-19.56,11.28-4.75,24.97-7.14,41.08-7.14,11.05,0,21.9,1.19,32.57,3.57,10.66,2.38,20.06,5.87,28.2,10.47l-16.34,39.36c-15.81-7.98-30.77-11.97-44.88-11.97s-20.95,3.38-20.95,10.13c0,3.22,2.07,5.64,6.21,7.25s10.97,3.34,20.48,5.18c12.27,2.3,22.63,4.95,31.07,7.94,8.44,2.99,15.77,7.87,21.98,14.62,6.21,6.75,9.32,15.96,9.32,27.62,0,10.13-2.84,19.3-8.52,27.5-5.68,8.21-14.16,14.73-25.43,19.56s-24.97,7.25-41.08,7.25c-13.35,0-26.35-1.5-39.01-4.49Z"/></svg>