<?xml version="1.0" encoding="UTF-8"?><svg id="_Ñëîé_1" xmlns="http://www.w3.org/2000/svg" xmlns:xlink="http://www.w3.org/1999/xlink" viewBox="0 0 1661.33 948.01"><defs><linearGradient id="linear-gradient" x1="0" y1="789.64" x2="1661.33" y2="789.64" gradientUnits="userSpaceOnUse"><stop offset="0" stop-color="#e3cb9d"/><stop offset="1" stop-color="#b47f33"/></linearGradient></defs><path d="m1661.33,120.57v510.69H0V120.57C0,56.39,52.16,4.23,116.34,4.23h1428.65c64.31,0,116.34,52.16,116.34,116.34Z"/><path d="m1661.33,631.26v200.4c0,64.31-52.03,116.34-116.34,116.34H116.34c-64.18,0-116.34-52.03-116.34-116.34v-200.4h1661.33Z" style="fill:url(#linear-gradient);"/><g><path d="m648.98,452.05h-187.9v-92.89c32.29-63.16,78.51-140.62,138.68-232.36h155.08v239.24h45.52v86.01h-45.52v56.63h-105.86v-56.63Zm-94.74-81.51h97.92v-170.17h-2.12c-41.28,63.34-73.22,119-95.8,166.99v3.18Z" style="fill:#fff;"/><path d="m844.29,508.69V126.8h112.21v161.96h2.12l118.03-161.96h117.77l-125.71,169.64,131.53,212.25h-130.47l-83.36-140.26-29.91,40.23v100.04h-112.21Z" style="fill:#fff;"/></g><g><path d="m292.23,811.6c0,12.61,3.75,22.7,11.25,30.28,7.74,7.82,18.35,11.73,31.84,11.73s24.14-3.91,31.96-11.73c7.5-7.58,11.25-17.67,11.25-30.28v-109.76h26.69v112.03c0,18.91-6.22,34.15-18.67,45.72-12.77,11.89-29.84,17.83-51.23,17.83s-38.46-5.94-51.23-17.83c-12.45-11.57-18.67-26.81-18.67-45.72v-112.03h26.81v109.76Z"/><path d="m544.3,874.56h-107.24v-172.72h26.81v149.5h80.43v23.22Z"/><path d="m586.31,874.56v-149.62h-53.86v-23.1h134.41v23.1h-53.74v149.62h-26.81Z"/><path d="m715.58,874.56h-26.81v-172.72h67.87c17.71,0,31.76,4.79,42.13,14.36,10.37,9.5,15.56,22.3,15.56,38.42,0,11.73-2.95,21.98-8.86,30.76-5.98,8.86-14.2,15.04-24.66,18.55l38.78,70.62h-31l-35.19-66.43h-37.82v66.43Zm0-88.09h38.54c10.37,0,18.39-2.71,24.06-8.14,5.75-5.43,8.62-13.09,8.62-22.98s-2.99-17.24-8.98-22.74c-5.9-5.51-14.04-8.26-24.42-8.26h-37.82v62.12Z"/><path d="m936.89,827.88h-65.83l-15.8,46.68h-27.89l62.36-172.72h28.97l62.36,172.72h-28.37l-15.8-46.68Zm-59.01-21.54h52.19l-25.73-75.77h-.72l-25.73,75.77Z"/><path d="m1164.19,874.56v-66.79h-60.8v66.79h-50.75v-172.72h50.75v65.59h60.8v-65.59h50.75v172.72h-50.75Z"/><path d="m1312.73,701.84c26.41,0,46.84,7.26,61.28,21.78,14.6,14.76,21.9,35.87,21.9,63.32s-7.34,49.11-22.02,64.51c-14.6,15.4-34.99,23.1-61.16,23.1h-73.85v-172.72h73.85Zm-23.1,132.38h15.92c25.77,0,38.66-15.76,38.66-47.28,0-14.44-3.39-25.53-10.17-33.27-6.7-7.66-16.2-11.49-28.49-11.49h-15.92v92.04Z"/></g></svg>