<?xml version="1.0" encoding="UTF-8"?><svg id="_Ñëîé_1" xmlns="http://www.w3.org/2000/svg" xmlns:xlink="http://www.w3.org/1999/xlink" viewBox="0 0 1662.39 943.78"><defs><linearGradient id="linear-gradient" x1="1.06" y1="785.41" x2="1662.39" y2="785.41" gradientUnits="userSpaceOnUse"><stop offset="0" stop-color="#e3cb9d"/><stop offset="1" stop-color="#b47f33"/></linearGradient></defs><path d="m1662.39,116.34v510.69H1.06V116.34C1.06,52.16,53.22,0,117.41,0h1428.65c64.31,0,116.34,52.16,116.34,116.34Z"/><path d="m1662.39,627.03v200.4c0,64.31-52.03,116.34-116.34,116.34H117.41c-64.18,0-116.34-52.03-116.34-116.34v-200.4h1661.33Z" style="fill:url(#linear-gradient);"/><g><path d="m398.2,182.46v-1.9h-164.75v-76.18h264.26v75.95l-134.04,267.6h-105.71l140.23-265.45Z" style="fill:#fff;"/><path d="m527.23,212.22c0-35.23,12.78-63.57,38.33-84.99,25.55-21.59,59.52-32.38,101.9-32.38s74.12,9.6,98.56,28.81c23.97,19.05,35.95,44.28,35.95,75.71s-19.28,64.92-57.85,99.04l-80.71,71.42v1.9h142.61v76.18h-272.83v-67.14l138.08-122.13c22.38-20,33.57-38.73,33.57-56.19,0-9.52-3.57-17.38-10.71-23.57-7.46-6.35-17.54-9.52-30.24-9.52s-23.89,3.97-32.14,11.9c-8.41,7.94-12.62,18.17-12.62,30.71v2.14h-91.9v-1.9Z" style="fill:#fff;"/><path d="m881.25,408.87c-27.3-32.54-40.95-77.06-40.95-133.56s13.73-101.1,41.19-133.32c26.98-31.58,63.72-47.38,110.23-47.38s83.25,15.79,110.23,47.38c27.3,32.06,40.95,76.42,40.95,133.08s-13.57,101.02-40.71,133.56c-27.14,32.54-63.96,48.81-110.47,48.81s-83.48-16.19-110.47-48.57Zm145.23-54.76c9.05-18.41,13.57-44.68,13.57-78.8s-4.52-60.15-13.57-78.09c-8.41-16.67-20-25-34.76-25s-26.35,8.33-34.76,25c-9.21,17.94-13.81,43.96-13.81,78.09s4.6,60.39,13.81,78.8c8.57,17.14,20.16,25.71,34.76,25.71s26.19-8.57,34.76-25.71Z" style="fill:#fff;"/><path d="m1400.01,222.69c20,23.97,30,55.95,30,95.94s-9.92,71.82-29.76,95.94c-19.68,23.97-45.79,35.95-78.33,35.95-38.41,0-65.71-15-81.9-45h-.95v126.89h-51.66V189.36h49.76v42.85h1.19c7.3-13.97,18.33-25,33.09-33.09,14.92-8.25,31.35-12.38,49.28-12.38,33.01,0,59.44,11.98,79.28,35.95Zm-41.9,159.99c12.7-16.03,19.05-37.38,19.05-64.04s-6.35-48.01-19.05-64.04c-12.7-16.03-29.52-24.05-50.47-24.05s-37.06,8.09-49.76,24.28c-12.7,16.19-19.13,37.46-19.28,63.8.16,26.35,6.59,47.61,19.28,63.8,12.54,16.19,29.12,24.28,49.76,24.28s37.77-8.02,50.47-24.05Z" style="fill:#fff;"/></g><g><path d="m773.12,869.65v-65.15h-59.31v65.15h-49.51v-168.48h49.51v63.98h59.31v-63.98h49.51v168.48h-49.51Z"/><path d="m918.01,701.16c25.76,0,45.69,7.08,59.78,21.25,14.24,14.4,21.37,34.99,21.37,61.77s-7.16,47.91-21.48,62.93c-14.24,15.02-34.13,22.53-59.66,22.53h-72.04v-168.48h72.04Zm-22.53,129.14h15.53c25.14,0,37.71-15.37,37.71-46.12,0-14.09-3.31-24.91-9.92-32.46-6.54-7.47-15.8-11.21-27.79-11.21h-15.53v89.79Z"/></g></svg>