<svg xmlns="http://www.w3.org/2000/svg" version="1.1" xmlns:xlink="http://www.w3.org/1999/xlink" xmlns:svgjs="http://svgjs.com/svgjs" width="512" height="512" x="0" y="0" viewBox="0 0 512 512" style="enable-background:new 0 0 512 512" xml:space="preserve" class=""><g><path d="M451.952 468.32H60.048C27.024 468.32 0 441.296 0 408.272V103.728C0 70.704 27.024 43.68 60.048 43.68h391.896c33.032 0 60.056 27.024 60.056 60.048v304.544c0 33.024-27.024 60.048-60.048 60.048z" style="" fill="#d8dae0" data-original="#fc6f58" class=""></path><path d="M512 138.184v-34.456c0-33.032-27.024-60.048-60.048-60.048H60.048C27.024 43.68 0 70.704 0 103.728v34.456h512z" fill="#000000" data-original="#000000" class=""></path><circle cx="58.4" cy="90.928" r="13.424" style="" fill="#d8dae0" data-original="#fc6f58" class=""></circle><circle cx="96.64" cy="90.928" r="13.424" style="" fill="#49c3e8" data-original="#49c3e8" class=""></circle><circle cx="134.904" cy="90.928" r="13.424" style="" fill="#ffd160" data-original="#ffd160" class=""></circle><path d="M429.392 87.168h30.416v6.824h-30.416z" style="" fill="#ffffff" data-original="#ffffff" class=""></path><path d="m450.872 111.088-5.144-4.48 13.648-15.68-13.648-15.672 5.144-4.48 17.576 20.152zM379.264 112.296H208.336c-11.752 0-21.368-9.616-21.368-21.368 0-11.752 9.616-21.368 21.368-21.368h170.928c11.752 0 21.368 9.616 21.368 21.368 0 11.752-9.616 21.368-21.368 21.368z" style="" fill="#ffffff" data-original="#ffffff" class=""></path><path d="m212.656 101.152-4.704-19.24h3.744l1.824 8.736c.48 2.344.936 4.8 1.256 6.704h.056c.32-2.024.856-4.304 1.4-6.736l2.08-8.704h3.68l1.92 8.856c.48 2.28.88 4.424 1.16 6.504h.064c.336-2.12.8-4.304 1.304-6.656l2-8.704h3.576l-5.176 19.24h-3.76l-2-9.056c-.496-2.184-.824-4.016-1.056-6.104h-.064c-.336 2.056-.704 3.92-1.28 6.104l-2.224 9.056h-3.8zM237.712 101.152l-4.704-19.24h3.744l1.824 8.736c.48 2.344.936 4.8 1.256 6.704h.056c.32-2.024.856-4.304 1.4-6.736l2.08-8.704h3.68l1.92 8.856c.48 2.28.88 4.424 1.16 6.504h.064c.336-2.12.8-4.304 1.304-6.656l2-8.704h3.576l-5.176 19.24h-3.76l-2-9.056c-.496-2.184-.824-4.016-1.056-6.104h-.064c-.336 2.056-.704 3.92-1.28 6.104l-2.224 9.056h-3.8zM262.768 101.152l-4.704-19.24h3.744l1.824 8.736c.48 2.344.936 4.8 1.256 6.704h.056c.32-2.024.856-4.304 1.4-6.736l2.08-8.704h3.68l1.92 8.856c.48 2.28.88 4.424 1.16 6.504h.064c.336-2.12.8-4.304 1.304-6.656l2-8.704h3.576l-5.176 19.24h-3.76l-2-9.056c-.496-2.184-.824-4.016-1.056-6.104h-.064c-.336 2.056-.704 3.92-1.28 6.104l-2.224 9.056h-3.8zM282.064 99.208c0-1.304.92-2.256 2.176-2.256 1.28 0 2.176.92 2.176 2.256 0 1.296-.864 2.264-2.176 2.264-1.28 0-2.176-.968-2.176-2.264z" fill="#000000" data-original="#000000" class=""></path><path d="m80.36 260.824 11.104 42.696c2.424 9.376 4.68 18.056 6.24 26.736h.52c1.904-8.512 4.696-17.536 7.472-26.568l13.704-42.872h12.84l13.032 42c3.12 10.064 5.544 18.92 7.448 27.432h.52c1.384-8.512 3.656-17.36 6.432-27.256l11.976-42.176h15.096l-27.064 84.008H145.8l-12.856-40.096c-2.944-9.36-5.368-17.696-7.448-27.584h-.344c-2.08 10.064-4.696 18.752-7.64 27.76l-13.536 39.928H90.08l-25.352-84.008H80.36zM210.112 260.824l11.104 42.696c2.424 9.376 4.68 18.056 6.24 26.736h.52c1.904-8.512 4.696-17.536 7.472-26.568l13.704-42.872h12.84l13.032 42c3.12 10.064 5.544 18.92 7.448 27.432h.52c1.384-8.512 3.656-17.36 6.432-27.256l11.976-42.176h15.096l-27.064 84.008h-13.88l-12.856-40.096c-2.944-9.36-5.368-17.696-7.448-27.584h-.344c-2.08 10.064-4.696 18.752-7.64 27.76l-13.536 39.928h-13.88l-25.368-84.008h15.632zM339.88 260.824l11.104 42.696c2.424 9.376 4.68 18.056 6.24 26.736h.52c1.904-8.512 4.696-17.536 7.472-26.568l13.704-42.872h12.84l13.032 42c3.12 10.064 5.544 18.92 7.448 27.432h.52c1.384-8.512 3.656-17.36 6.432-27.256l11.976-42.176h15.096L419.2 344.824h-13.88l-12.856-40.096c-2.944-9.36-5.368-17.696-7.448-27.584h-.344c-2.08 10.064-4.696 18.752-7.64 27.76l-13.536 39.928H349.6l-25.352-84.008h15.632z" style="" fill="#ffffff" data-original="#ffffff" class=""></path></g></svg>