<svg width="32" height="32" viewBox="0 0 32 32" fill="none" xmlns="http://www.w3.org/2000/svg">
<path fill-rule="evenodd" clip-rule="evenodd" d="M8.14618 8.15267L0.146249 16.1517C-0.0487496 16.3416 -0.0487496 16.6618 0.146249 16.8518L8.14618 24.8507C8.34218 25.0507 8.65819 25.0507 8.85418 24.8507C9.04918 24.6608 9.04918 24.3406 8.85418 24.1506L1.20721 16.5017L8.85418 8.85277C9.04918 8.6628 9.04918 8.34264 8.85418 8.15267C8.65819 7.95269 8.34218 7.95269 8.14618 8.15267Z" fill="#333333"/>
<path fill-rule="evenodd" clip-rule="evenodd" d="M23.1458 8.85277L30.7927 16.5017L23.1458 24.1506C22.9508 24.3406 22.9508 24.6608 23.1458 24.8507C23.3418 25.0507 23.6578 25.0507 23.8538 24.8507L31.8537 16.8518C32.0487 16.6618 32.0487 16.3416 31.8537 16.1517L23.8538 8.15267C23.6578 7.95269 23.3418 7.95269 23.1458 8.15267C22.9508 8.34264 22.9508 8.6628 23.1458 8.85277Z" fill="#333333"/>
<path fill-rule="evenodd" clip-rule="evenodd" d="M17.0041 4.443L14.0041 28.44C13.9701 28.7099 14.1641 28.9599 14.4381 28.9999C14.7121 29.0299 14.962 28.84 14.996 28.5601L17.996 4.5631C18.03 4.29313 17.8361 4.04311 17.5621 4.00311C17.2881 3.97311 17.0381 4.16303 17.0041 4.443Z" fill="#333333"/>
</svg>
