<?xml version="1.0" encoding="utf-8"?>
<!-- Generator: Adobe Illustrator 27.2.0, SVG Export Plug-In . SVG Version: 6.00 Build 0)  -->
<svg version="1.1" id="Layer_1" xmlns:svgjs="http://svgjs.com/svgjs"
	 xmlns="http://www.w3.org/2000/svg" xmlns:xlink="http://www.w3.org/1999/xlink" x="0px" y="0px" viewBox="0 0 512 512"
	 style="enable-background:new 0 0 512 512;" xml:space="preserve">
<style type="text/css">
	.st0{fill:#FFFFFF;}
	.st1{fill:none;stroke:#FFFFFF;stroke-width:15;stroke-linecap:round;stroke-linejoin:round;stroke-miterlimit:10;}
</style>
<g>
	<g>
		<g transform="matrix(1.33333 0 0 -1.33333 0 682.667)">
			<g>
				<path class="st0" d="M192,491.4c23.1,0,45.6-4.5,66.7-13.5c20.4-8.6,38.7-21,54.5-36.7c15.7-15.7,28.1-34.1,36.7-54.5
					c8.9-21.1,13.5-43.6,13.5-66.7c0-23.1-4.5-45.6-13.5-66.7c-8.6-20.4-21-38.7-36.7-54.5s-34.1-28.1-54.5-36.7
					c-21.1-8.9-43.6-13.5-66.7-13.5c-23.1,0-45.6,4.5-66.7,13.5c-20.4,8.6-38.7,21-54.5,36.7s-28.1,34.1-36.7,54.5
					c-8.9,21.1-13.5,43.6-13.5,66.7c0,23.1,4.5,45.6,13.5,66.7c8.6,20.4,21,38.7,36.7,54.5c15.7,15.7,34.1,28.1,54.5,36.7
					C146.4,486.8,168.9,491.4,192,491.4 M192,506.4C89.1,506.4,5.6,422.9,5.6,320S89.1,133.6,192,133.6S378.4,217.1,378.4,320
					S294.9,506.4,192,506.4L192,506.4z"/>
			</g>
			<path class="st1" d="M222.1,344v24c0,10,8.1,18,18,18h24c3.3,0,6,2.7,6,6v36.1c0,3.3-2.7,6-6,6h-36.1
				c-36.5,0-66.1-29.6-66.1-66.1V320h-42.1c-3.3,0-6-2.7-6-6c0,0,0,0,0,0v-36.1c0-3.3,2.7-6,6-6l0,0h42.1V163.7"/>
			<path class="st1" d="M222.1,146v125.9h31.4c2.8,0,5.2,1.9,5.8,4.6l9,36.1c0.9,3.8-1.9,7.5-5.8,7.5h-40.4"/>
		</g>
	</g>
</g>
</svg>
