<?xml version="1.0" encoding="UTF-8"?><svg id="Layer_1" xmlns="http://www.w3.org/2000/svg" viewBox="0 0 497 497"><path d="m288.58,480.5v-167.87h41.84c3.68,0,6.89-2.5,7.78-6.07l12.02-48.1c1.26-5.06-2.56-9.96-7.78-9.96h-53.86" style="fill:none; stroke:#fff; stroke-linecap:round; stroke-linejoin:round; stroke-width:15px;"/><path d="m248.5,20c30.86,0,60.78,6.04,88.94,17.95,27.21,11.51,51.65,27.99,72.64,48.98,20.99,20.99,37.47,45.43,48.98,72.64,11.91,28.16,17.95,58.08,17.95,88.94s-6.04,60.78-17.95,88.94c-11.51,27.21-27.99,51.65-48.98,72.64-20.99,20.99-45.43,37.47-72.64,48.98-28.16,11.91-58.08,17.95-88.94,17.95s-60.78-6.04-88.94-17.95c-27.21-11.51-51.65-27.99-72.64-48.98-20.99-20.99-37.47-45.43-48.98-72.64-11.91-28.16-17.95-58.08-17.95-88.94s6.04-60.78,17.95-88.94c11.51-27.21,27.99-51.65,48.98-72.64,20.99-20.99,45.43-37.47,72.64-48.98,28.16-11.91,58.08-17.95,88.94-17.95m0-20C111.26,0,0,111.26,0,248.5s111.26,248.5,248.5,248.5,248.5-111.26,248.5-248.5S385.74,0,248.5,0h0Z" style="fill:#9fff6c;"/><path d="m288.58,216.43v-32.06c0-13.28,10.77-24.05,24.05-24.05h32.06c4.43,0,8.02-3.59,8.02-8.02v-48.1c0-4.43-3.59-8.02-8.02-8.02h-48.1c-48.7,0-88.18,39.48-88.18,88.18v64.13h-56.11c-4.43,0-8.02,3.59-8.02,8.02h0v48.1c0,4.43,3.59,8.02,8.02,8.02h56.11v144.29" style="fill:none; stroke:#fff; stroke-linecap:round; stroke-linejoin:round; stroke-width:15px;"/></svg>