<?xml version="1.0" encoding="UTF-8"?><svg id="Layer_1" xmlns="http://www.w3.org/2000/svg" viewBox="0 0 537.99 529.88"><path d="m289.49,57.88c30.18,0,59.45,5.91,86.99,17.55,26.61,11.26,50.52,27.37,71.05,47.91,20.53,20.53,36.65,44.44,47.91,71.05,11.65,27.54,17.55,56.81,17.55,86.99s-5.91,59.45-17.55,86.99c-11.26,26.61-27.37,50.52-47.91,71.05-20.53,20.53-44.44,36.65-71.05,47.91-27.54,11.65-56.81,17.55-86.99,17.55s-59.45-5.91-86.99-17.55c-26.61-11.26-50.52-27.37-71.05-47.91-20.53-20.53-36.65-44.44-47.91-71.05-11.65-27.54-17.55-56.81-17.55-86.99s5.91-59.45,17.55-86.99c11.26-26.61,27.37-50.52,47.91-71.05,20.53-20.53,44.44-36.65,71.05-47.91,27.54-11.65,56.81-17.55,86.99-17.55m0-25c-137.24,0-248.5,111.26-248.5,248.5s111.26,248.5,248.5,248.5,248.5-111.26,248.5-248.5S426.73,32.88,289.49,32.88h0Z" style="fill:#fe6f61;"/><g><path d="m163.84,238.81l17.22,53.62h.42l6.86-28.56,9.1-26.74h26.88v3.78l-35,95.2h-13.58l-16.94-44.8h-.42l-16.24,44.8h-14.28l-35-95.2v-3.78h26.88l9.24,26.74,7.42,28.56h.42l16.52-53.62h10.5Z" style="fill:#fff;"/><path d="m296.98,238.81l17.22,53.62h.42l6.86-28.56,9.1-26.74h26.88v3.78l-35,95.2h-13.58l-16.94-44.8h-.42l-16.24,44.8h-14.28l-35-95.2v-3.78h26.88l9.24,26.74,7.42,28.56h.42l16.52-53.62h10.5Z" style="fill:#fff;"/><path d="m430.12,238.81l17.22,53.62h.42l6.86-28.56,9.1-26.74h26.88v3.78l-35,95.2h-13.58l-16.94-44.8h-.42l-16.24,44.8h-14.28l-35-95.2v-3.78h26.88l9.24,26.74,7.42,28.56h.42l16.52-53.62h10.5Z" style="fill:#fff;"/></g><text transform="translate(48.97 213.88)" style="fill:#ff0; font-family:AntiqueOlive-Compact, &apos;Antique Olive CompactPS&apos;; font-size:250px;"><tspan x="0" y="0">!</tspan></text></svg>