<?xml version="1.0" encoding="UTF-8"?><svg id="Layer_1" xmlns="http://www.w3.org/2000/svg" viewBox="0 0 560.14 529.52"><g><path d="m427.89,162.38h-247.5c-18.91.02-34.23,15.34-34.25,34.25v153.78c.02,18.91,15.34,34.23,34.25,34.25h247.5c18.91-.02,34.23-15.34,34.25-34.25v-153.78c-.02-18.91-15.34-34.23-34.25-34.25Zm18.25,188.03c-.01,10.07-8.17,18.24-18.25,18.25h-247.5c-10.07-.01-18.24-8.18-18.25-18.25v-153.78c.01-10.07,8.17-18.24,18.25-18.25h247.5c10.07.01,18.24,8.18,18.25,18.25v153.78Zm-70.95-90.28l-86.06-49.68c-7.4-4.27-16.85-1.74-21.12,5.66-1.36,2.35-2.07,5.01-2.07,7.72v99.38c-.03,8.52,6.85,15.45,15.37,15.48,2.74.01,5.44-.71,7.82-2.1l86.06-49.68c7.39-4.27,9.92-13.73,5.65-21.12-1.35-2.35-3.3-4.3-5.65-5.66Zm-93.25,62.14v-97.5l84.43,48.75-84.43,48.75Zm145.95-159.89h-247.5c-18.91.02-34.23,15.34-34.25,34.25v153.78c.02,18.91,15.34,34.23,34.25,34.25h247.5c18.91-.02,34.23-15.34,34.25-34.25v-153.78c-.02-18.91-15.34-34.23-34.25-34.25Zm18.25,188.03c-.01,10.07-8.17,18.24-18.25,18.25h-247.5c-10.07-.01-18.24-8.18-18.25-18.25v-153.78c.01-10.07,8.17-18.24,18.25-18.25h247.5c10.07.01,18.24,8.18,18.25,18.25v153.78Zm-70.95-90.28l-86.06-49.68c-7.4-4.27-16.85-1.74-21.12,5.66-1.36,2.35-2.07,5.01-2.07,7.72v99.38c-.03,8.52,6.85,15.45,15.37,15.48,2.74.01,5.44-.71,7.82-2.1l86.06-49.68c7.39-4.27,9.92-13.73,5.65-21.12-1.35-2.35-3.3-4.3-5.65-5.66Zm-93.25,62.14v-97.5l84.43,48.75-84.43,48.75Zm98.9-56.48c-1.35-2.35-3.3-4.3-5.65-5.66l-86.06-49.68c-7.4-4.27-16.85-1.74-21.12,5.66-1.36,2.35-2.07,5.01-2.07,7.72v99.38c-.03,8.52,6.85,15.45,15.37,15.48,2.74.01,5.44-.71,7.82-2.1l86.06-49.68c7.39-4.27,9.92-13.73,5.65-21.12Zm-98.9,56.48v-97.5l84.43,48.75-84.43,48.75Zm98.9-56.48c-1.35-2.35-3.3-4.3-5.65-5.66l-86.06-49.68c-7.4-4.27-16.85-1.74-21.12,5.66-1.36,2.35-2.07,5.01-2.07,7.72v99.38c-.03,8.52,6.85,15.45,15.37,15.48,2.74.01,5.44-.71,7.82-2.1l86.06-49.68c7.39-4.27,9.92-13.73,5.65-21.12Zm-98.9,56.48v-97.5l84.43,48.75-84.43,48.75Zm145.95-159.89h-247.5c-18.91.02-34.23,15.34-34.25,34.25v153.78c.02,18.91,15.34,34.23,34.25,34.25h247.5c18.91-.02,34.23-15.34,34.25-34.25v-153.78c-.02-18.91-15.34-34.23-34.25-34.25Zm18.25,188.03c-.01,10.07-8.17,18.24-18.25,18.25h-247.5c-10.07-.01-18.24-8.18-18.25-18.25v-153.78c.01-10.07,8.17-18.24,18.25-18.25h247.5c10.07.01,18.24,8.18,18.25,18.25v153.78Zm-70.95-90.28l-86.06-49.68c-7.4-4.27-16.85-1.74-21.12,5.66-1.36,2.35-2.07,5.01-2.07,7.72v99.38c-.03,8.52,6.85,15.45,15.37,15.48,2.74.01,5.44-.71,7.82-2.1l86.06-49.68c7.39-4.27,9.92-13.73,5.65-21.12-1.35-2.35-3.3-4.3-5.65-5.66Zm-93.25,62.14v-97.5l84.43,48.75-84.43,48.75Z" style="fill:#fff;"/><path d="m304.14,17.52c-141.16,0-256,114.84-256,256s114.84,256,256,256,256-114.84,256-256S445.3,17.52,304.14,17.52Zm0,489c-128.48,0-233-104.52-233-233S175.66,40.52,304.14,40.52s233,104.52,233,233-104.52,233-233,233Z" style="fill:#fe6f61;"/></g><text transform="translate(48.97 213.87)" style="fill:#ff0; font-family:AntiqueOlive-Compact, &apos;Antique Olive CompactPS&apos;; font-size:250px;"><tspan x="0" y="0">!</tspan></text></svg>